<?xml version="1.0" encoding="UTF-8"?>
<svg xmlns="http://www.w3.org/2000/svg" version="1.1" xmlns:xlink="http://www.w3.org/1999/xlink" viewBox="0 0 113.39 113.39">
  <defs>
    <style>
      .cls-1 {
        fill: #fff;
      }

      .cls-2 {
        fill: none;
      }

      .cls-3 {
        fill: #004588;
      }

      .cls-4 {
        clip-path: url(#clippath);
      }
    </style>
    <clipPath id="clippath">
      <rect class="cls-2" x="0" y="0" width="113.39" height="113.39"/>
    </clipPath>
  </defs>
  <!-- Generator: Adobe Illustrator 28.7.1, SVG Export Plug-In . SVG Version: 1.2.0 Build 142)  -->
  <g>
    <g id="Ebene_1">
      <rect class="cls-3" x="0" y="0" width="113.39" height="113.39"/>
      <g class="cls-4">
        <path class="cls-1" d="M71.41,36.1v4.19l-18.15-8.52-11.29,6.58v-5.64l11.29-8.85,18.15,12.24ZM77.71,50.63l-24.46-4.69-11.29,2.69v5.72h35.74v-3.72ZM77.71,44.83l-24.46-10.03-11.29,5.76v6.25l11.29-3.72,24.46,6.16v-4.42ZM35.67,18.6h0s0,42.06,0,42.06h0s42.05,0,42.05,0v-2.1h-39.94V20.7h37.84v19.61h2.1v-21.71h-42.05Z"/>
        <path class="cls-1" d="M102.17,83.19v-3.02c0-1.76-1.11-2.7-2.91-2.7h-11.84c-1.79,0-2.88.94-2.88,2.7v10.15l-6.74-12.84h-4.02l-5.22,9.76c.09-.25.12-.51.12-.73,0-.73.01-6.27.01-7.26s-.72-1.76-2.34-1.76H25.46v3.1h7.26v13.85l-8.9-16.95h-4.02l-9.25,17.31h4.25l1.72-3.58h9.93l1.72,3.58h8.83v-14.19h14.12v4.18h-8.99v3.58h8.88v6.3h4.09v-6.29h11.89c.61,0,1.01-.25,1.28-.59l-3.75,7.02h4.26l1.72-3.58h9.93l1.72,3.58h4.49c.24,0,.5,0,.77,0h11.84c1.79,0,2.91-.43,2.91-2.19v-4.09l-4.13-.87v3.67h-9.54v-10.72h9.55v3.38l4.12-.78ZM18.62,87.59l3.01-5.84,3,5.84h-6.01ZM64.97,83.77c0,.66-.42.97-1.03.97h-8.7v-4.17s8.31,0,8.88,0,.85.43.85.83v2.38ZM72.59,87.59l3.01-5.84,3,5.84h-6.01Z"/>
      </g>
    </g>
  </g>
</svg>