<?xml version="1.0"?>
<svg width="1284" height="703" xmlns="http://www.w3.org/2000/svg" xmlns:svg="http://www.w3.org/2000/svg" display="block" version="1.1">
 <g class="layer">
  <title>Layer 1</title>
  <g id="svg_55" transform="translate(-194 -84) matrix(1 0 0 1 185.383 73.145)">
   <path d="m49,50c13.53,0 27.06,0 41,0c0.33,36.63 0.66,73.26 1,111c3.3,-2.64 6.6,-5.28 10,-8c27.95,-19.12 60.79,-25.34 94,-20c32.01,6.15 60.6,25.37 79.12,52.05c18.93,29.58 25.26,63.49 17.88,97.95c-7.93,31.5 -27.35,59.66 -55.25,76.69c-29.1,17.07 -62.99,22.61 -95.92,14.66c-18.68,-4.96 -35.12,-13.9 -49.83,-26.35c-1.98,6.6 -3.96,13.2 -6,20c-11.88,0 -23.76,0 -36,0c0,-104.94 0,-209.88 0,-318zm61,151c-14.02,16.71 -21.05,38.02 -19.78,59.75c2.46,22.68 12.91,42.21 30.03,57.06c18.02,13.99 39.72,20.16 62.38,17.5c17.21,-2.67 31.34,-9.92 44.37,-21.31c0.69,-0.59 1.37,-1.18 2.08,-1.79c14.56,-13.47 22.97,-34.07 24.12,-53.65c0.31,-23.16 -7.32,-44.22 -23.52,-60.88c-0.88,-0.88 -1.77,-1.77 -2.68,-2.68c-0.66,-0.67 -1.31,-1.34 -1.99,-2.03c-14.55,-13.77 -36.18,-20.7 -55.95,-20.22c-23.22,1.87 -43.13,10.88 -59.06,28.25z" fill="currentcolor" id="svg_56" transform="matrix(1 0 0 1 0 0)"/>
   <path d="m822.07,161.6c25.16,22.05 39.48,52.23 41.93,85.4c2.03,33.2 -9.48,65.26 -31.36,90.09c-22.7,25.02 -53.53,39.04 -87.16,40.83c-31.49,1.09 -61.61,-9.3 -85.48,-29.92c-0.75,-0.62 -1.51,-1.25 -2.29,-1.89c-6.03,-5.11 -10.96,-10.8 -15.71,-17.11c-0.4,-0.53 -0.8,-1.07 -1.22,-1.62c-15.86,-21.33 -23,-45.93 -23.03,-72.32c0,-0.69 0,-1.39 0,-2.1c0.02,-10.28 0.42,-19.99 3.25,-29.96c0.34,-1.22 0.68,-2.45 1.03,-3.72c9.82,-32.1 31.67,-58.24 60.97,-74.28c45.26,-23.76 100.53,-16.36 139.07,16.6zm-143.07,39.4c-14.02,16.71 -21.05,38.02 -19.78,59.75c2.46,22.69 12.91,42.21 30.03,57.06c18.02,13.99 39.72,20.17 62.38,17.5c17.22,-2.67 31.35,-9.92 44.37,-21.31c0.69,-0.59 1.38,-1.18 2.09,-1.79c14.56,-13.47 22.96,-34.07 24.12,-53.65c0.3,-23.16 -7.33,-44.21 -23.53,-60.87c-0.88,-0.89 -1.77,-1.78 -2.68,-2.69c-0.65,-0.67 -1.31,-1.34 -1.99,-2.02c-14.55,-13.77 -36.18,-20.71 -55.94,-20.22c-23.22,1.86 -43.14,10.87 -59.07,28.24z" fill="currentcolor" id="svg_57" transform="matrix(1 0 0 1 0 0)"/>
   <path d="m520,163c0.66,0 1.32,0 2,0c1.32,-7.59 2.64,-15.18 4,-23c11.88,0 23.76,0 36,0c0.11,15.94 0.21,31.87 0.26,47.81c0.02,7.4 0.06,14.8 0.12,22.2c0.05,6.46 0.08,12.92 0.09,19.39c0.01,3.41 0.02,6.82 0.06,10.23c0.32,33.49 -7.05,62.22 -30.84,86.67c-0.89,0.89 -1.77,1.78 -2.69,2.7c-0.75,0.78 -1.51,1.55 -2.29,2.36c-21.65,20.98 -50.01,28.09 -79.26,27.79c-28.71,-0.6 -54.62,-13.5 -74.54,-33.77c-22.01,-23.21 -29.65,-51.91 -29.22,-83.17c0.74,-23.62 10.66,-44.95 25.31,-63.21c0.67,-0.84 1.33,-1.69 2.02,-2.56c36.35,-43.36 105.47,-48.07 148.98,-13.44zm-113,37c-0.61,0.53 -1.22,1.06 -1.85,1.61c-13.14,12.16 -19.22,29.78 -20.18,47.25c-0.21,15.98 5.24,30.64 15.03,43.14c0.8,1.05 0.8,1.05 1.62,2.12c9.99,12.29 25.71,20.75 41.38,22.88c20.31,1.64 37.49,-2.6 53.81,-15.31c14.21,-12.25 22.52,-28.71 24.07,-47.38c1.07,-18.25 -5.27,-36.11 -17.17,-49.97c-13.51,-14.18 -31.1,-22.11 -50.71,-22.71c-17.32,0.6 -33.11,6.71 -46,18.37z" fill="currentcolor" id="svg_58"/>
   <path d="m523,397c13.86,0 27.72,0 42,0c0,30.76 -11.82,57.15 -32.81,79.25c-20.81,19.99 -48.51,30.46 -77.19,31.13c-30.83,-0.74 -58.04,-12.78 -79.68,-34.63c-8.32,-8.75 -14.94,-18.46 -19.32,-29.75c1.1,-0.61 2.2,-1.21 3.34,-1.84c1.53,-0.84 3.07,-1.69 4.6,-2.53c0.8,-0.45 1.61,-0.89 2.43,-1.35c4.21,-2.33 8.39,-4.71 12.5,-7.21c1.16,-0.69 1.16,-0.69 2.33,-1.4c1.47,-0.89 2.94,-1.8 4.4,-2.71c1.76,-1.06 3.58,-2.02 5.4,-2.96c3,1 3,1 4.47,3.55c0.53,1.1 1.05,2.2 1.59,3.33c8.05,15.68 21.53,25.46 37.93,31.19c17.64,5.45 34.79,3.5 51.32,-4.26c14.76,-7.91 26.15,-19.81 31.69,-35.81c2.39,-7.94 3.97,-15.75 5,-24z" fill="currentcolor" id="svg_59"/>
  </g>
  <g id="svg_80" transform="matrix(1 0 0 1 0 0) translate(296 174) translate(-286.052 -175.415)">
   <path d="m1195,400c4.81,4.41 8.46,8.91 9.34,15.54c0.13,9.32 -2.21,17 -8.61,23.92c-2.96,2.64 -6.27,4.63 -9.73,6.54c2.66,4.18 5.48,7.8 8.87,11.44c3.81,4.11 7.51,8.28 11.13,12.56c4.39,-8.32 5.61,-16.81 7,-26c5.45,0.49 5.45,0.49 11,1c0.53,10.96 -1.06,20.89 -6.37,30.63c-0.54,1.11 -1.08,2.22 -1.63,3.37c0.96,2.66 1.44,3.72 4,5c1.87,0.23 3.75,0.41 5.63,0.56c1,0.09 2,0.17 3.03,0.26c0.77,0.06 1.55,0.12 2.34,0.18c0.03,1.81 0.05,3.62 0.06,5.44c0.01,1.01 0.03,2.02 0.04,3.06c-0.1,2.5 -0.1,2.5 -1.1,3.5c-7.72,0.71 -14.99,0.32 -21.19,-4.81c-0.6,-0.39 -1.19,-0.79 -1.81,-1.19c-2.51,0.63 -4.54,1.76 -6.82,2.96c-10.22,5.31 -20.68,6.7 -31.99,3.79c-8.07,-2.76 -14.45,-7.29 -18.33,-15.01c-2.05,-6.52 -2.21,-15.84 0.64,-22.18c3.68,-5.99 9.2,-11.41 15.5,-14.56c-1.33,-3.59 -2.95,-6.7 -5,-9.94c-4.55,-7.54 -6.56,-14.53 -4.46,-23.31c2.56,-7.42 6.53,-11.29 13.46,-14.75c7.52,-2.44 18.24,-2.48 25,2zm-24.88,12.13c-1.97,5.05 -2.05,9.44 -0.1,14.53c1.99,4.09 4.18,7.75 6.98,11.34c5.58,-1.14 9.68,-4.06 12.87,-8.75c1.87,-5.4 3.04,-10.6 1.07,-16.12c-2.29,-3.7 -3.86,-4.74 -7.94,-6.13c-5.25,-0.79 -9.4,1.19 -12.88,5.13zm-1.68,45.62c-1.18,1.04 -1.18,1.04 -2.38,2.11c-3.36,3.49 -4.36,6.19 -4.44,11.02c0.13,4.84 1,7.49 4.38,11.12c5.43,4.6 10.89,6.39 18,6c5.42,-1.03 9.7,-2.5 14,-6c-3.87,-8.72 -11.76,-15.96 -18.15,-22.91c-1.85,-2.09 -1.85,-2.09 -3.85,-5.09c-3.89,0 -4.72,1.18 -7.56,3.75z" fill="#7BAAD2" id="svg_81" transform="matrix(1 0 0 1 0 0)"/>
   <path d="m766.75,563.31c1.73,1.3 1.73,1.3 3.25,2.69c0.56,0.51 1.12,1.02 1.7,1.54c1.3,1.46 1.3,1.46 1.3,3.46c0.66,0 1.32,0 2,0c0.14,-1.3 0.29,-2.6 0.44,-3.94c0.44,-3.94 0.44,-3.94 1.56,-5.06c1.52,-0.07 3.04,-0.09 4.56,-0.07c0.83,0.01 1.66,0.02 2.51,0.03c0.63,0.01 1.27,0.03 1.93,0.04c0.07,9.34 0.12,18.69 0.16,28.03c0.01,4.34 0.03,8.68 0.07,13.02c0.03,4.2 0.05,8.39 0.05,12.59c0.01,1.59 0.02,3.19 0.04,4.78c0.1,10.56 0.15,21.3 -6.67,30.04c-7.27,6.77 -16.37,7.82 -25.85,7.68c-8.08,-0.42 -14.8,-2.47 -20.8,-8.14c-3.48,-5.07 -5,-8.82 -5,-15c4.29,0 8.58,0 13,0c0.41,1.09 0.82,2.18 1.25,3.31c1.37,3.21 2.64,4.94 5.75,6.69c6.06,2.02 12.76,2.02 18.56,-0.63c4.86,-4.73 5.9,-9.67 6.13,-16.25c0.03,-0.69 0.07,-1.37 0.1,-2.08c0.08,-1.68 0.15,-3.36 0.21,-5.04c-0.35,0.47 -0.7,0.94 -1.07,1.42c-4.31,5.44 -7.97,8.12 -14.91,8.93c-8.68,0.39 -15.06,-1.25 -21.79,-6.82c-7.96,-8.24 -10.57,-20.06 -10.38,-31.15c0.62,-9.99 3.51,-19.39 11.02,-26.32c8.53,-6.68 20.97,-9.84 30.88,-3.75zm-24,15.13c-4.97,7.27 -5.53,16.26 -4.13,24.81c1.53,6.32 4.3,10.99 9.25,15.19c4.93,2.46 8.35,3.06 13.69,1.56c5.82,-3.39 9.14,-7.36 11.32,-13.75c2.29,-9.02 1.74,-17.66 -1.88,-26.25c-2.64,-4.27 -5.26,-6.33 -10,-8c-8.01,-1.07 -12.67,0.39 -18.25,6.44z" fill="#7CAAD1" id="svg_82" transform="matrix(1 0 0 1 0 0)"/>
   <path d="m1032,430c2.23,1.88 4.06,3.81 6,6c0.99,-2.31 1.98,-4.62 3,-7c2.97,0 5.94,0 9,0c0.07,9.62 0.12,19.25 0.16,28.87c0.01,4.47 0.03,8.94 0.07,13.41c0.03,4.32 0.05,8.63 0.05,12.95c0.01,1.64 0.02,3.29 0.04,4.93c0.09,9.63 0.12,18.02 -4.94,26.59c-8.49,8.04 -17.71,8.7 -28.87,8.54c-7.39,-0.31 -14.35,-2.83 -19.51,-8.29c-2.88,-4.56 -4.24,-8.65 -5,-14c4.42,-0.47 8.6,-0.72 13,0c2.04,1.9 2.91,3.5 3.97,6.05c1.32,2.49 2.42,2.98 5.03,3.95c6.34,1.61 12.23,1.21 18,-2c4.49,-5.28 5.14,-9.5 5.06,-16.25c-0.01,-1.08 -0.02,-2.16 -0.02,-3.27c-0.02,-0.82 -0.03,-1.64 -0.04,-2.48c-1.05,1.39 -1.05,1.39 -2.12,2.81c-3.37,4.04 -7.66,6.42 -12.88,7.19c-8.14,0.55 -14.78,-0.9 -21.25,-6.06c-6.8,-6.41 -10.59,-15.87 -11.09,-25.14c-0.24,-11.89 0.63,-21.76 8.46,-31.3c8.81,-8.95 22.61,-12.21 33.88,-5.5zm-24.25,14.25c-5.76,7.29 -5.39,15.83 -4.75,24.75c1.15,6.57 4.03,11.55 9,16c3.94,2.32 7.48,2.4 12,2c6.48,-2.33 9.63,-6.5 12.81,-12.31c2.78,-8.33 2.75,-19.49 -0.93,-27.5c-3.02,-5.03 -6.31,-7.33 -11.88,-9.19c-7.08,-0.53 -11.44,1.07 -16.25,6.25z" fill="#7CAAD1" id="svg_83"/>
   <path d="m667.21,429.64c3.11,2.35 5.48,5.24 7.79,8.36c0.64,-0.82 0.64,-0.82 1.29,-1.65c4.45,-5.44 8.04,-8.87 15.35,-9.63c7.43,-0.26 12.32,0.72 18.11,5.59c4.85,5.79 6.39,11.42 6.37,18.84c0,1.5 0,1.5 0,3.04c-0.01,1.06 -0.01,2.13 -0.02,3.23c0,1.1 0,2.21 0,3.34c-0.01,3.52 -0.02,7.03 -0.03,10.55c-0.01,2.38 -0.01,4.77 -0.02,7.16c-0.01,5.84 -0.03,11.68 -0.05,17.53c-4.29,0 -8.58,0 -13,0c-0.01,-1.49 -0.02,-2.97 -0.03,-4.5c-0.04,-5.51 -0.1,-11.02 -0.17,-16.54c-0.03,-2.38 -0.05,-4.77 -0.07,-7.15c-0.02,-3.43 -0.07,-6.86 -0.12,-10.29c0,-1.06 0,-2.13 0,-3.22c-0.12,-6.04 -0.53,-9.73 -4.61,-14.3c-3.46,-1.73 -7.21,-1.35 -11,-1c-4.59,1.63 -6.12,4.42 -8.14,8.61c-1.56,4.34 -1.46,8.67 -1.47,13.23c-0.01,1.01 -0.03,2.02 -0.05,3.06c-0.04,3.2 -0.07,6.4 -0.09,9.6c-0.03,2.18 -0.06,4.35 -0.09,6.53c-0.07,5.32 -0.12,10.64 -0.16,15.97c-4.29,0 -8.58,0 -13,0c-0.01,-1.49 -0.02,-2.97 -0.03,-4.5c-0.04,-5.51 -0.1,-11.02 -0.17,-16.54c-0.03,-2.38 -0.05,-4.77 -0.07,-7.15c-0.02,-3.43 -0.07,-6.86 -0.12,-10.29c0,-1.06 0,-2.13 0,-3.22c-0.12,-6.04 -0.53,-9.73 -4.61,-14.3c-3.48,-1.74 -7.19,-1.45 -11,-1c-4.53,2.1 -6.53,4.24 -8.39,8.86c-1.2,4.22 -1.09,8.52 -1.12,12.88c-0.02,1.01 -0.03,2.02 -0.05,3.07c-0.06,3.2 -0.09,6.41 -0.12,9.62c-0.04,2.19 -0.07,4.37 -0.11,6.56c-0.08,5.33 -0.15,10.67 -0.21,16.01c-4.29,0 -8.58,0 -13,0c0,-22.11 0,-44.22 0,-67c3.96,0 7.92,0 12,0c0.33,2.31 0.66,4.62 1,7c0.68,-0.93 1.36,-1.86 2.07,-2.82c6.72,-7.92 18.36,-8.55 27.14,-3.54z" fill="#7BAAD2" id="svg_84" transform="matrix(1 0 0 1 0 0)"/>
   <path d="m976,532c3.96,0 7.92,0 12,0c0.33,20.13 0.66,40.26 1,61c8.43,-9.13 8.43,-9.13 16.81,-18.31c0.73,-0.79 1.46,-1.58 2.21,-2.39c2.02,-2.23 2.02,-2.23 3.53,-4.69c1.7,-2.51 2.87,-4.01 5.45,-5.61c5.28,-0.95 10.68,-0.46 16,0c-1.54,3.71 -3.81,5.98 -6.69,8.75c-5.88,5.77 -11.17,11.82 -16.31,18.25c0.4,0.64 0.8,1.29 1.22,1.95c0.56,0.9 1.13,1.81 1.71,2.74c0.63,1 1.25,2 1.9,3.03c1.37,2.19 2.73,4.38 4.1,6.57c3.09,4.95 6.18,9.9 9.29,14.83c0.47,0.74 0.93,1.48 1.41,2.24c0.86,1.36 1.71,2.72 2.57,4.08c2.8,4.45 2.8,4.45 2.8,5.56c-5.38,1.23 -10.77,2.23 -16,0c-4.91,-4.81 -7.76,-11.41 -10.75,-17.52c-1.63,-3.24 -3.51,-6.2 -5.5,-9.23c-0.54,-0.84 -1.08,-1.68 -1.64,-2.55c-0.37,-0.56 -0.73,-1.12 -1.11,-1.7c-1.09,0.91 -2.17,1.83 -3.25,2.75c-0.6,0.51 -1.21,1.02 -1.83,1.55c-0.63,0.56 -1.27,1.12 -1.92,1.7c-1.08,0.76 -1.08,0.76 -2.19,1.53c-2.94,4.01 -2.49,8.37 -2.56,13.22c-0.03,0.98 -0.06,1.97 -0.09,2.98c-0.07,2.42 -0.12,4.85 -0.16,7.27c-3.96,0 -7.92,0 -12,0c0,-32.34 0,-64.68 0,-98z" fill="#7CAAD2" id="svg_85"/>
   <path d="m969,431c4.81,3.67 6.77,9.25 8,15c0.46,5.71 0.52,11.4 0.56,17.13c0.12,11.12 0.69,21.86 2.44,32.87c-10.06,0.1 -10.06,0.1 -13,0c-1.97,-1.97 -1.66,-5.35 -2,-8c-0.62,0.91 -1.24,1.81 -1.88,2.75c-4.3,5.07 -9.89,6.91 -16.38,7.6c-8.01,0.21 -14.26,-0.41 -20.55,-5.72c-4.14,-4.97 -6.18,-9.05 -6.19,-15.63c0.61,-5.93 2.63,-9.82 7,-14c10.3,-7.52 25.7,-7.49 38,-8c-1.37,-7.85 -1.37,-7.85 -5.13,-14.69c-6.25,-2.85 -12.51,-3.05 -18.98,-0.68c-3.79,2.75 -4.04,6.98 -4.89,11.37c-4.29,0 -8.58,0 -13,0c0.23,-7.39 1.77,-12.59 7,-18c11.61,-7.68 26.64,-8.81 39,-2zm-17.81,34.69c-0.99,0.15 -1.97,0.3 -2.99,0.45c-6.13,1.05 -10,2.15 -14.2,6.86c-1.1,3.14 -0.85,5.8 0,9c3.11,3.83 5.54,5.19 10.37,6c5.59,0.3 10.11,-0.83 14.39,-4.52c4.59,-4.93 6.15,-9.66 6.36,-16.42c-0.04,-1.01 -0.08,-2.02 -0.12,-3.06c-4.68,0 -9.2,0.91 -13.81,1.69z" fill="#7CAAD2" id="svg_86" transform="matrix(1 0 0 1 0 0)"/>
   <path d="m1113,431c6.2,5.01 8.82,10.38 11,18c0,5.61 0,11.22 0,17c-15.51,0 -31.02,0 -47,0c1.99,8.96 3.43,13.89 11,19c5.41,1.69 10.91,1.72 16.25,-0.12c4.18,-2.85 7.12,-5.99 8.75,-10.88c3.72,1.21 7.38,2.51 11,4c-1.62,6.5 -4.79,11.97 -10.51,15.59c-10.02,5.06 -20.64,6.37 -31.49,2.85c-7.2,-3.05 -12.02,-8.11 -15.22,-15.21c-4.53,-13 -3.84,-27.06 1.84,-39.54c3.73,-6.97 8.3,-10.65 15.57,-13.57c9.79,-2.81 19.79,-1.8 28.81,2.88zm-31.75,11.31c-3.77,4.5 -4.25,7.86 -4.25,13.69c11.55,0 23.1,0 35,0c-1.02,-9.89 -1.02,-9.89 -7.06,-16.81c-7.97,-4.88 -16.98,-2.52 -23.69,3.12z" fill="#7CAAD2" id="svg_87"/>
   <path d="m700.08,563.69c0.63,0.43 1.27,0.87 1.92,1.31c0.7,0.48 1.41,0.95 2.13,1.44c6.92,5.32 10.6,12.99 11.87,21.56c0.85,12.67 0.29,24.4 -8.19,34.57c-6.5,6.59 -13.8,9.3 -22.94,9.68c-8.11,-0.13 -15.77,-2.16 -22.09,-7.38c-7.64,-8 -10.17,-17.39 -10.09,-28.18c0,-0.84 0.01,-1.68 0.01,-2.55c0.22,-11.09 3.01,-18.6 10.74,-26.64c8.99,-8.23 25.91,-9.79 36.64,-3.81zm-27.33,11.31c-5.41,5.13 -6.91,11.7 -7.17,18.96c-0.07,8.39 0.38,16.04 6.23,22.48c4.41,3.89 8.39,4.78 14.19,4.44c6,-0.79 9.45,-2.94 13.25,-7.69c4.57,-8.33 5.04,-17.61 3.21,-26.92c-1.69,-5.52 -4.11,-9.49 -8.77,-13.02c-7.5,-3.48 -14.13,-2.44 -20.94,1.75z" fill="#7CAAD2" id="svg_88"/>
   <path d="m780.03,432.18c6.08,4.5 9.65,12.01 11.62,19.18c1.74,13.05 0.96,25.63 -6.84,36.6c-5.33,6.03 -12.33,9.61 -20.32,10.38c-10.36,0.1 -19.06,-1.12 -26.89,-8.37c-8.69,-10.7 -9.46,-22.81 -8.6,-35.97c1.23,-8.05 4.89,-15.5 11.15,-20.82c12.25,-8.62 27.05,-8.47 39.88,-1zm-34.4,12.63c-4.66,9.15 -5.4,20.48 -2.38,30.32c1.88,4.64 4.19,7.77 8.32,10.68c5.57,1.93 11.15,2.37 16.78,0.35c5.86,-3.25 8.23,-7.75 10.23,-13.96c1.58,-8.32 1.54,-18.62 -2.58,-26.2c-3.51,-4.37 -7.43,-7.46 -13.1,-8.32c-7.16,-0.37 -12.62,1.62 -17.27,7.13z" fill="#7CAAD3" id="svg_89"/>
   <path d="m853.03,429.55c6.38,4.68 8.36,11 9.6,18.49c0.58,4.64 0.62,9.21 0.57,13.87c0,0.99 -0.01,1.97 -0.01,2.98c-0.01,3.1 -0.04,6.2 -0.06,9.29c-0.01,2.12 -0.02,4.24 -0.03,6.36c-0.02,5.15 -0.06,10.3 -0.1,15.46c-4.29,0 -8.58,0 -13,0c-0.01,-1.39 -0.03,-2.78 -0.04,-4.21c-0.06,-5.16 -0.14,-10.33 -0.22,-15.49c-0.03,-2.23 -0.06,-4.46 -0.08,-6.7c-0.04,-3.21 -0.09,-6.43 -0.15,-9.64c0,-0.99 -0.01,-1.98 -0.01,-3.01c-0.13,-5.73 -0.74,-9.89 -3.5,-14.95c-3.07,-2.9 -5.85,-3.25 -9.93,-3.44c-4.76,0.16 -7.46,1.17 -11.07,4.44c-3.7,4.8 -5.08,8.43 -5.2,14.4c-0.02,0.86 -0.04,1.72 -0.06,2.6c-0.03,1.38 -0.03,1.38 -0.05,2.79c-0.02,0.95 -0.05,1.9 -0.07,2.88c-0.06,3.02 -0.12,6.05 -0.18,9.08c-0.04,2.05 -0.09,4.1 -0.13,6.16c-0.11,5.03 -0.21,10.06 -0.31,15.09c-4.29,0 -8.58,0 -13,0c0,-22.11 0,-44.22 0,-67c3.96,0 7.92,0 12,0c0.33,2.64 0.66,5.28 1,8c0.78,-1.12 0.78,-1.12 1.57,-2.25c7.94,-8.97 21.92,-10.67 32.46,-5.2z" fill="#7CAAD2" id="svg_90" transform="matrix(1 0 0 1 0 0)"/>
   <path d="m875.34,563.8c4.67,3.38 7.49,6.85 9.66,12.2c0,1.32 0,2.64 0,4c-9.32,2.68 -9.32,2.68 -13,1c-1,-2 -2,-4 -3,-6c-5.09,-3.82 -10.9,-3.81 -17,-3c-3.67,1.39 -3.67,1.39 -6,4c-1.23,3.4 -1.22,5.22 -0.25,8.69c4.34,4.46 10.87,4.86 16.8,5.98c8.15,1.58 14.59,3.22 20.38,9.39c2.69,4.9 2.65,10.5 2.07,15.94c-1.67,5.32 -4.24,9.01 -9,12c-9.22,4.52 -18.87,5.23 -28.8,2.75c-7.47,-2.56 -12.34,-7.24 -16.52,-13.81c-0.68,-1.94 -0.68,-1.94 -0.68,-6.94c3.96,-0.66 7.92,-1.32 12,-2c0.7,1.42 1.4,2.85 2.12,4.31c1.66,2.93 2.79,4.62 5.44,6.75c5.67,1.55 11.84,2.14 17.51,0.25c2.85,-1.65 3.88,-3.18 4.99,-6.25c-0.08,-3.8 -0.63,-5.14 -3.06,-8.06c-2.8,-1.14 -5.66,-1.62 -8.63,-2.13c-1.63,-0.32 -3.27,-0.64 -4.9,-0.97c-0.78,-0.15 -1.55,-0.31 -2.36,-0.46c-7.25,-1.5 -14.41,-3.71 -18.93,-9.94c-2.51,-5.29 -3.3,-10.91 -1.54,-16.59c2.73,-6.07 6.87,-10.41 13,-13.05c8.99,-2.3 21.46,-2.72 29.7,1.94z" fill="#7CAAD2" id="svg_91"/>
   <path d="m917,540c0,7.26 0,14.52 0,22c5.28,0 10.56,0 16,0c0,3.63 0,7.26 0,11c-5.28,0 -10.56,0 -16,0c0.07,5.93 0.16,11.85 0.26,17.78c0.04,2.02 0.06,4.03 0.09,6.05c0.03,2.9 0.08,5.79 0.14,8.69c0,0.9 0.01,1.81 0.02,2.74c0.03,1.26 0.03,1.26 0.06,2.54c0.01,0.74 0.02,1.48 0.03,2.24c0.52,2.53 1.36,3.41 3.4,4.96c4.12,0.84 7.78,1 12,1c0,3.63 0,7.26 0,11c-3.03,1.52 -5.88,1.21 -9.25,1.25c-1.96,0.04 -1.96,0.04 -3.95,0.08c-5.14,-0.45 -8.41,-1.94 -12.05,-5.58c-4.02,-6.31 -4.03,-12.58 -3.95,-19.84c0.01,-0.94 0.01,-1.89 0.01,-2.86c0.01,-3 0.04,-5.99 0.06,-8.99c0.02,-2.04 0.02,-4.08 0.03,-6.12c0.02,-4.98 0.06,-9.96 0.1,-14.94c-3.96,0 -7.92,0 -12,0c0,-3.63 0,-7.26 0,-11c3.96,0 7.92,0 12,0c0,-5.61 0,-11.22 0,-17c9.62,-5 9.62,-5 13,-5z" fill="#7CAAD2" id="svg_92" transform="matrix(1 0 0 1 0 0)"/>
   <path d="m896,406c0,7.59 0,15.18 0,23c5.28,0 10.56,0 16,0c0,3.3 0,6.6 0,10c-5.28,0 -10.56,0 -16,0c0.04,5.91 0.11,11.82 0.21,17.72c0.03,2.01 0.05,4.02 0.06,6.03c0.02,2.89 0.07,5.78 0.12,8.67c0,0.9 0,1.8 0,2.72c0.1,5.06 0.1,5.06 2.47,9.43c4.05,2.71 8.43,1.65 13.14,1.43c0,3.96 0,7.92 0,12c-7.73,1.55 -14.95,2.09 -22,-2c-5.41,-5.17 -7.06,-10.47 -7.23,-17.74c0,-1.78 0.01,-3.57 0.03,-5.35c0.01,-0.94 0.01,-1.89 0.01,-2.86c0.01,-3 0.04,-5.99 0.06,-8.99c0.02,-2.04 0.02,-4.08 0.03,-6.12c0.02,-4.98 0.06,-9.96 0.1,-14.94c-3.96,0 -7.92,0 -12,0c0,-3.3 0,-6.6 0,-10c3.96,0 7.92,0 12,0c0,-5.94 0,-11.88 0,-18c1.77,-0.83 3.55,-1.65 5.37,-2.5c1,-0.46 2,-0.93 3.03,-1.41c2.6,-1.09 2.6,-1.09 4.6,-1.09z" fill="#7CAAD2" id="svg_93"/>
   <path d="m626,532c3.96,0 7.92,0 12,0c0,32.34 0,64.68 0,98c-3.96,0 -7.92,0 -12,0c0,-32.34 0,-64.68 0,-98z" fill="#7CAAD2" id="svg_94" transform="matrix(1 0 0 1 0 0)"/>
   <path d="m804,562c4.29,0 8.58,0 13,0c0,22.44 0,44.88 0,68c-4.29,0 -8.58,0 -13,0c0,-22.44 0,-44.88 0,-68z" fill="#7CABD1" id="svg_95"/>
   <path d="m945,562c3.96,0 7.92,0 12,0c0,22.44 0,44.88 0,68c-3.96,0 -7.92,0 -12,0c0,-22.44 0,-44.88 0,-68z" fill="#7CAAD2" id="svg_96" transform="matrix(1 0 0 1 0 0)"/>
   <path d="m944,535c4.62,0 9.24,0 14,0c0,5.28 0,10.56 0,16c-4.62,0 -9.24,0 -14,0c0,-5.28 0,-10.56 0,-16z" fill="#7CAAD1" id="svg_97"/>
   <path d="m804,535c4.62,0 9.24,0 14,0c0,5.28 0,10.56 0,16c-4.62,0 -9.24,0 -14,0c0,-5.28 0,-10.56 0,-16z" fill="#7CAAD2" id="svg_98" transform="matrix(1 0 0 1 0 0)"/>
  </g>
 </g>
</svg>