<?xml version="1.0"?>
<svg width="319" height="158" xmlns="http://www.w3.org/2000/svg" xmlns:svg="http://www.w3.org/2000/svg" display="block" version="1.1">
 <g class="layer">
  <title>Layer 1</title>
  <g id="svg_14" transform="translate(-0.491841 0.888339)">
   <path d="m3,3c4.29,0 8.58,0 13,0c0.33,10.56 0.66,21.12 1,32c3.63,-1.98 7.26,-3.96 11,-6c11.97,-2.99 20.94,-1.02 32,3c12.79,11.51 17.47,18.14 19,35c-2.04,11.22 -4.7,18.24 -12,27c-12.57,8 -20.16,10.35 -35,9c-11,-4 -11,-4 -15,-7c-0.99,1.65 -1.98,3.3 -3,5c-3.63,0 -7.26,0 -11,0c0,-32.34 0,-64.68 0,-98zm19,47c-5.66,8.99 -5.66,8.99 -6,19c4.8,11.99 5.75,13.75 17,20c8.4,2.8 13.26,0.44 21,-3c6.02,-4.82 8.56,-8.69 11,-16c0,-9.97 -1.89,-15.89 -9,-23c-12.63,-7.89 -22.59,-8.41 -34,3z" fill="currentColor" id="svg_15" transform="matrix(1 0 0 1 0 0)"/>
   <path d="m235,33c8.85,7.96 14.03,13.12 17,25c0,18.36 -1.82,24.46 -14,38c-12.76,6.96 -18.55,8.2 -33,7c-16.21,-6.75 -20.07,-11.13 -28,-27c-2.88,-14.39 0.66,-23.76 8,-36c16.17,-13.86 29.86,-15.39 50,-7zm-40,17c-5.82,9.78 -5.82,9.78 -5,21c5.53,11.05 8.51,14.69 20,19c11.59,0 16.85,-2.85 25,-11c4.37,-10.2 4.24,-14.2 1,-25c-7.33,-9.6 -7.33,-9.6 -18,-13c-10.29,0 -15.21,2.32 -23,9z" fill="currentColor" id="svg_16"/>
   <path d="m147,36c0.33,-1.98 0.66,-3.96 1,-6c3.96,0 7.92,0 12,0c0,47.56 0,47.56 -13,62c-13.37,6.68 -21.47,7.36 -36,3c-9.18,-6.88 -13.33,-11.5 -18,-22c0,-18.07 0.31,-22.85 12,-36c15.9,-7.95 25.54,-9.23 42,-1zm-32,11c-7.13,7.11 -7.13,7.11 -9,14c1.21,12.1 2.89,14.19 12,22c8.49,2.83 13.45,0.77 21,-3c7.72,-8.91 7.72,-8.91 7,-22c-4.53,-7.24 -7.43,-11.86 -16,-14c-7.33,-0.41 -7.33,-0.41 -15,3z" fill="currentColor" id="svg_17"/>
   <path d="m161,108c0,11.45 -3.64,18.41 -11,27c-11.34,6.8 -14.86,8 -28,8c-11.95,-3.58 -16.82,-7.65 -25,-17c-0.33,-0.99 -0.66,-1.98 -1,-3c3.63,-2.31 7.26,-4.62 11,-7c3,3 6,6 9,9c6.37,3.75 6.37,3.75 16,3c8.02,-3.31 8.02,-3.31 12,-9c0.99,-3.3 1.98,-6.6 3,-10c3.31,-3.31 9.32,-1 14,-1z" fill="currentColor" id="svg_18" transform="matrix(1 0 0 1 0 0)"/>
   <path d="m254,108c1.65,0 3.3,0 5,0c0,11.55 0,23.1 0,35c-2.31,0 -4.62,0 -7,0c-3.46,0.49 -3.46,0.49 -7,1c-7,-3 -7,-3 -10,-8c0,-9 0,-9 5,-15c2,-1 2,-1 11,-1c0.66,0.33 1.32,0.66 2,1c0.33,-4.29 0.66,-8.58 1,-13zm-14,21c0.33,2.31 0.66,4.62 1,7c1.65,0.99 3.3,1.98 5,3c5.24,-1.59 5.24,-1.59 8,-6c-1.31,-5.99 -1.31,-5.99 -5,-8c-5.35,-0.59 -5.35,-0.59 -9,4z" fill="currentColor" id="svg_19"/>
   <path d="m317,121c0,24 0,24 -3,30c-3,2 -3,2 -12,2c-1.65,-1.65 -3.3,-3.3 -5,-5c0.66,-0.99 1.32,-1.98 2,-3c0.99,0 1.98,0 3,0c0,0.66 0,1.32 0,2c2.64,0.33 5.28,0.66 8,1c0.66,-2.64 1.32,-5.28 2,-8c-0.66,0.33 -1.32,0.66 -2,1c-8,0 -8,0 -13,-5c-1,-2 -1,-2 -1,-8c6.91,-10.37 5.16,-7 21,-7zm-14,5c-2.59,3.12 -2.59,3.12 -1,8c2.12,2.59 2.12,2.59 7,2c0.99,-0.99 1.98,-1.98 3,-3c-0.49,-4.86 -0.49,-4.86 -3,-7c-1.98,0 -3.96,0 -6,0z" fill="currentColor" id="svg_20"/>
   <path d="m178,108c1.65,0 3.3,0 5,0c0.33,4.29 0.66,8.58 1,13c0.33,-0.33 0.66,-0.66 1,-1c8,0 8,0 13,5c0,5.94 0,11.88 0,18c-1.65,0 -3.3,0 -5,0c-0.33,-5.28 -0.66,-10.56 -1,-16c-1.35,-1.59 -1.35,-1.59 -6,-1c-3.74,3.3 -3.74,3.3 -3,17c-1.65,0 -3.3,0 -5,0c0,-11.55 0,-23.1 0,-35z" fill="currentColor" id="svg_21" transform="matrix(1 0 0 1 0 0)"/>
   <path d="m217,120c6,5 6,5 8,13c-3,7 -3,7 -7,10c-8,1 -8,1 -14,-2c-3,-4 -3,-4 -4,-10c3.35,-10.04 6.59,-11 17,-11zm-11,8c0,2.31 0,4.62 0,7c2.47,1.98 2.47,1.98 5,4c5.09,-0.54 5.09,-0.54 8,-4c0,-2.31 0,-4.62 0,-7c-5.48,-4.11 -7.52,-4.11 -13,0z" fill="currentColor" id="svg_22"/>
   <path d="m289,120c4,5 4,5 4,23c-1.65,0 -3.3,0 -5,0c-0.33,-5.28 -0.66,-10.56 -1,-16c-1.35,-1.59 -1.35,-1.59 -6,-1c-3.25,4.35 -3.25,4.35 -3,17c-1.65,0 -3.3,0 -5,0c0,-7.26 0,-14.52 0,-22c1.98,0 3.96,0 6,0c2,-1 2,-1 10,-1z" fill="currentColor" id="svg_23" transform="matrix(1 0 0 1 0 0)"/>
   <path d="m227,109c1.65,0 3.3,0 5,0c0,11.22 0,22.44 0,34c-1.65,0 -3.3,0 -5,0c0,-11.22 0,-22.44 0,-34z" fill="currentColor" id="svg_24" transform="matrix(1 0 0 1 0 0)"/>
   <path d="m263,121c1.65,0 3.3,0 5,0c0,7.26 0,14.52 0,22c-1.65,0 -3.3,0 -5,0c0,-7.26 0,-14.52 0,-22z" fill="currentColor" id="svg_25" transform="matrix(1 0 0 1 0 0)"/>
   <path d="m264,109c1.65,0.33 3.3,0.66 5,1c-0.33,1.65 -0.66,3.3 -1,5c-1.65,-0.33 -3.3,-0.66 -5,-1c0.33,-1.65 0.66,-3.3 1,-5z" fill="currentColor" id="svg_26"/>
  </g>
 </g>
</svg>