<svg viewBox="0 0 430 430" xmlns="http://www.w3.org/2000/svg">
  <!-- RED TICKET (Top Left) -->
  <g transform="translate(5,5)">
    <rect width="200" height="200" rx="20" fill="#d32727"/>
    <g transform="translate(75,100)">
      <circle r="23" fill="#fff"/>
      <path d="M-8,-15 L-5,-30 Q-5,-33 0,-33 Q5,-33 5,-30 L8,-15 Z" fill="#fff"/>
      <path d="M-8,-15 L-5,-30 Q-5,-33 0,-33 Q5,-33 5,-30 L8,-15 Z" fill="#fff" transform="rotate(45)"/>
      <path d="M-8,-15 L-5,-30 Q-5,-33 0,-33 Q5,-33 5,-30 L8,-15 Z" fill="#fff" transform="rotate(90)"/>
      <path d="M-8,-15 L-5,-30 Q-5,-33 0,-33 Q5,-33 5,-30 L8,-15 Z" fill="#fff" transform="rotate(135)"/>
      <path d="M-8,-15 L-5,-30 Q-5,-33 0,-33 Q5,-33 5,-30 L8,-15 Z" fill="#fff" transform="rotate(180)"/>
      <path d="M-8,-15 L-5,-30 Q-5,-33 0,-33 Q5,-33 5,-30 L8,-15 Z" fill="#fff" transform="rotate(225)"/>
      <path d="M-8,-15 L-5,-30 Q-5,-33 0,-33 Q5,-33 5,-30 L8,-15 Z" fill="#fff" transform="rotate(270)"/>
      <path d="M-8,-15 L-5,-30 Q-5,-33 0,-33 Q5,-33 5,-30 L8,-15 Z" fill="#fff" transform="rotate(315)"/>
      <circle r="10" fill="#d32727"/>
    </g>
    <g transform="translate(125,78)">
      <circle r="16" fill="#ccc"/>
      <path d="M-6,-12 L-4,-20 Q-4,-23 0,-23 Q4,-23 4,-20 L6,-12 Z" fill="#ccc"/>
      <path d="M-6,-12 L-4,-20 Q-4,-23 0,-23 Q4,-23 4,-20 L6,-12 Z" fill="#ccc" transform="rotate(60)"/>
      <path d="M-6,-12 L-4,-20 Q-4,-23 0,-23 Q4,-23 4,-20 L6,-12 Z" fill="#ccc" transform="rotate(120)"/>
      <path d="M-6,-12 L-4,-20 Q-4,-23 0,-23 Q4,-23 4,-20 L6,-12 Z" fill="#ccc" transform="rotate(180)"/>
      <path d="M-6,-12 L-4,-20 Q-4,-23 0,-23 Q4,-23 4,-20 L6,-12 Z" fill="#ccc" transform="rotate(240)"/>
      <path d="M-6,-12 L-4,-20 Q-4,-23 0,-23 Q4,-23 4,-20 L6,-12 Z" fill="#ccc" transform="rotate(300)"/>
      <circle r="6" fill="#d32727"/>
    </g>
    <!-- Bomb icon -->
    <g transform="translate(175,25)">
      <circle r="20" fill="none" stroke="#000" stroke-width="3"/>
      <g transform="translate(-13.8,-13.8) scale(1.15)">
        <path stroke="none" d="M0 0h24v24H0z" fill="none"/>
        <path d="M14.499 3.996a2.2 2.2 0 0 1 1.556 .645l3.302 3.301a2.2 2.2 0 0 1 0 3.113l-.567 .567l.043 .192a8.5 8.5 0 0 1 -3.732 8.83l-.23 .144a8.5 8.5 0 1 1 -2.687 -15.623l.192 .042l.567 -.566a2.2 2.2 0 0 1 1.362 -.636zm-4.499 5.004a4 4 0 0 0 -4 4a1 1 0 0 0 2 0a2 2 0 0 1 2 -2a1 1 0 0 0 0 -2z" fill="#000"/>
        <path d="M21 2a1 1 0 0 1 .117 1.993l-.117 .007h-1c0 .83 -.302 1.629 -.846 2.25l-.154 .163l-1.293 1.293a1 1 0 0 1 -1.497 -1.32l.083 -.094l1.293 -1.292c.232 -.232 .375 -.537 .407 -.86l.007 -.14a2 2 0 0 1 1.85 -1.995l.15 -.005h1z" fill="#000"/>
      </g>
    </g>
    <!-- Explosion icon -->
    <g transform="translate(175,70)">
      <circle r="20" fill="none" stroke="#000" stroke-width="3"/>
      <g transform="translate(-19.5,-19.5) scale(0.077)">
        <path d="M0,0 L9,0 L9,4 L5,7 L-3,8 L-6,7 L-5,3 Z " transform="translate(81,425)" fill="#000"/>
        <path d="M0,0 L4,1 L12,15 L-1,18 L-6,21 L-8,21 L-16,10 L-16,7 Z " transform="translate(255,420)" fill="#000"/>
        <path d="M0,0 L7,1 L6,5 L-1,9 L-11,9 L-12,7 L-8,3 Z " transform="translate(181,417)" fill="#000"/>
        <path d="M0,0 L4,1 L5,5 L-2,8 L-32,16 L-37,16 L-38,11 L-29,8 Z " transform="translate(240,399)" fill="#000"/>
        <path d="M0,0 L17,1 L121,11 L126,12 L126,13 L16,17 L0,17 L-3,12 L-3,5 Z " transform="translate(72,371)" fill="#000"/>
        <path d="M0,0 L5,2 L4,7 L-2,6 L-3,2 Z " transform="translate(256,353)" fill="#000"/>
        <path d="M0,0 L8,6 L16,13 L13,16 L2,21 L0,8 Z " transform="translate(226,340)" fill="#000"/>
        <path d="M0,0 L10,1 L61,12 L62,13 L62,18 L55,18 L0,6 L-1,1 Z " transform="translate(81,339)" fill="#000"/>
        <path d="M0,0 L10,1 L50,13 L51,17 L49,19 L42,18 L1,6 L-1,4 Z " transform="translate(162,327)" fill="#000"/>
        <path d="M0,0 L4,2 L3,6 L-7,15 L-15,21 L-19,20 L-18,15 L-8,6 Z " transform="translate(449,319)" fill="#000"/>
        <path d="M0,0 L2,3 L9,16 L14,20 L22,20 L28,16 L34,11 L39,5 L41,7 L42,16 L46,22 L54,32 L57,41 L58,47 L58,64 L54,80 L47,94 L36,106 L24,115 L11,121 L0,124 L-12,125 L-27,123 L-43,117 L-56,109 L-62,108 L-71,108 L-72,103 L-68,93 L-68,84 L-71,79 L-76,77 L-95,77 L-92,68 L-89,59 L-88,48 L-60,47 L-45,45 L-36,42 L-33,41 L-31,35 L-30,33 L-29,22 L-15,22 L-9,18 L-4,10 Z M14,78 L6,85 L-8,92 L-23,96 L-21,100 L-7,108 L-3,109 L6,109 L12,105 L15,101 L16,98 L16,80 Z " transform="translate(360,316)" fill="#000"/>
        <path d="M0,0 L14,0 L30,5 L40,12 L39,15 L24,15 L11,11 L2,6 L-1,3 Z " transform="translate(114,301)" fill="#000"/>
        <path d="M0,0 L5,2 L13,8 L13,10 L1,16 L-1,16 Z " transform="translate(428,294)" fill="#000"/>
        <path d="M0,0 L8,2 L6,6 L3,10 L1,10 L-1,1 Z " transform="translate(344,255)" fill="#000"/>
        <path d="M0,0 L6,2 L30,16 L54,30 L78,44 L104,59 L121,69 L150,86 L160,92 L158,93 L118,75 L77,57 L35,38 L-1,22 L-8,19 L-9,17 L-8,8 L-3,1 Z " transform="translate(82,218)" fill="#000"/>
        <path d="M0,0 L4,1 L3,11 L-15,82 L-20,83 L-21,82 L-20,73 L-2,2 Z " transform="translate(426,218)" fill="#000"/>
        <path d="M0,0 L3,1 L2,10 L-2,17 L-6,21 L-9,21 L-9,13 L-4,3 Z " transform="translate(432,168)" fill="#000"/>
        <path d="M0,0 L5,1 L23,47 L41,94 L47,109 L47,115 L43,116 L40,111 L21,62 L3,15 L-1,5 Z " transform="translate(267,167)" fill="#000"/>
        <path d="M0,0 L6,1 L22,13 L38,24 L52,34 L69,46 L87,59 L107,73 L124,85 L142,98 L162,112 L180,125 L197,137 L210,146 L210,151 L206,152 L188,139 L169,126 L153,114 L137,103 L120,91 L102,78 L85,66 L68,54 L50,41 L33,29 L16,17 L2,7 L-1,4 Z " transform="translate(70,160)" fill="#000"/>
        <path d="M0,0 L5,0 L20,16 L27,24 L41,39 L48,47 L59,59 L70,71 L79,81 L91,94 L100,104 L111,116 L122,128 L130,137 L129,142 L124,141 L112,128 L101,116 L92,106 L80,93 L71,83 L60,71 L51,61 L40,49 L29,37 L20,27 L8,14 L0,5 Z " transform="translate(153,156)" fill="#000"/>
        <path d="M0,0 L5,1 L5,49 L3,141 L1,143 L-3,142 L-4,138 L-2,37 L-1,1 Z " transform="translate(368,149)" fill="#000"/>
        <path d="M0,0 L5,0 L11,7 L14,15 L14,23 L12,27 L6,26 L0,18 L-2,11 L-2,4 Z " transform="translate(254,132)" fill="#000"/>
        <path d="M0,0 L7,0 L16,5 L24,12 L29,19 L31,24 L31,32 L30,33 L22,33 L12,27 L3,18 L-2,8 L-2,2 Z " transform="translate(104,132)" fill="#000"/>
        <path d="M0,0 L4,1 L5,2 L9,92 L9,108 L4,109 L3,108 L2,98 L-1,27 L-1,1 Z " transform="translate(338,115)" fill="#000"/>
        <path d="M0,0 L3,1 L3,7 L-1,13 L-4,13 L-5,7 L-2,1 Z " transform="translate(442,90)" fill="#000"/>
        <path d="M0,0 L4,4 L5,8 L5,21 L2,28 L-1,28 L-4,21 L-4,8 L-1,1 Z " transform="translate(357,80)" fill="#000"/>
        <path d="M0,0 L6,0 L10,5 L28,41 L38,60 L52,88 L62,107 L79,141 L89,160 L102,186 L101,188 L83,161 L73,145 L59,124 L38,92 L17,60 L-4,28 L-13,14 L-12,7 L-4,1 Z " transform="translate(176,72)" fill="#000"/>
        <path d="M0,0 L7,0 L11,4 L3,77 L-6,155 L-7,155 L-6,106 L-3,4 L-2,1 Z " transform="translate(397,69)" fill="#000"/>
        <path d="M0,0 L6,0 L10,4 L21,108 L28,175 L28,182 L27,182 L0,55 L-10,8 L-9,3 Z " transform="translate(296,66)" fill="#000"/>
      </g>
    </g>
  </g>

  <!-- BLUE TICKET (Top Right) -->
  <g transform="translate(225,5)">
    <rect width="200" height="200" rx="20" fill="#5d98d2"/>
    <g transform="translate(75,100)">
      <circle r="23" fill="#fff"/>
      <path d="M-8,-15 L-5,-30 Q-5,-33 0,-33 Q5,-33 5,-30 L8,-15 Z" fill="#fff"/>
      <path d="M-8,-15 L-5,-30 Q-5,-33 0,-33 Q5,-33 5,-30 L8,-15 Z" fill="#fff" transform="rotate(45)"/>
      <path d="M-8,-15 L-5,-30 Q-5,-33 0,-33 Q5,-33 5,-30 L8,-15 Z" fill="#fff" transform="rotate(90)"/>
      <path d="M-8,-15 L-5,-30 Q-5,-33 0,-33 Q5,-33 5,-30 L8,-15 Z" fill="#fff" transform="rotate(135)"/>
      <path d="M-8,-15 L-5,-30 Q-5,-33 0,-33 Q5,-33 5,-30 L8,-15 Z" fill="#fff" transform="rotate(180)"/>
      <path d="M-8,-15 L-5,-30 Q-5,-33 0,-33 Q5,-33 5,-30 L8,-15 Z" fill="#fff" transform="rotate(225)"/>
      <path d="M-8,-15 L-5,-30 Q-5,-33 0,-33 Q5,-33 5,-30 L8,-15 Z" fill="#fff" transform="rotate(270)"/>
      <path d="M-8,-15 L-5,-30 Q-5,-33 0,-33 Q5,-33 5,-30 L8,-15 Z" fill="#fff" transform="rotate(315)"/>
      <circle r="10" fill="#5d98d2"/>
    </g>
    <g transform="translate(125,78)">
      <circle r="16" fill="#ccc"/>
      <path d="M-6,-12 L-4,-20 Q-4,-23 0,-23 Q4,-23 4,-20 L6,-12 Z" fill="#ccc"/>
      <path d="M-6,-12 L-4,-20 Q-4,-23 0,-23 Q4,-23 4,-20 L6,-12 Z" fill="#ccc" transform="rotate(60)"/>
      <path d="M-6,-12 L-4,-20 Q-4,-23 0,-23 Q4,-23 4,-20 L6,-12 Z" fill="#ccc" transform="rotate(120)"/>
      <path d="M-6,-12 L-4,-20 Q-4,-23 0,-23 Q4,-23 4,-20 L6,-12 Z" fill="#ccc" transform="rotate(180)"/>
      <path d="M-6,-12 L-4,-20 Q-4,-23 0,-23 Q4,-23 4,-20 L6,-12 Z" fill="#ccc" transform="rotate(240)"/>
      <path d="M-6,-12 L-4,-20 Q-4,-23 0,-23 Q4,-23 4,-20 L6,-12 Z" fill="#ccc" transform="rotate(300)"/>
      <circle r="6" fill="#5d98d2"/>
    </g>
    <!-- Bomb icon -->
    <g transform="translate(175,25)">
      <circle r="20" fill="none" stroke="#000" stroke-width="3"/>
      <g transform="translate(-13.8,-13.8) scale(1.15)">
        <path stroke="none" d="M0 0h24v24H0z" fill="none"/>
        <path d="M14.499 3.996a2.2 2.2 0 0 1 1.556 .645l3.302 3.301a2.2 2.2 0 0 1 0 3.113l-.567 .567l.043 .192a8.5 8.5 0 0 1 -3.732 8.83l-.23 .144a8.5 8.5 0 1 1 -2.687 -15.623l.192 .042l.567 -.566a2.2 2.2 0 0 1 1.362 -.636zm-4.499 5.004a4 4 0 0 0 -4 4a1 1 0 0 0 2 0a2 2 0 0 1 2 -2a1 1 0 0 0 0 -2z" fill="#000"/>
        <path d="M21 2a1 1 0 0 1 .117 1.993l-.117 .007h-1c0 .83 -.302 1.629 -.846 2.25l-.154 .163l-1.293 1.293a1 1 0 0 1 -1.497 -1.32l.083 -.094l1.293 -1.292c.232 -.232 .375 -.537 .407 -.86l.007 -.14a2 2 0 0 1 1.85 -1.995l.15 -.005h1z" fill="#000"/>
      </g>
    </g>
    <!-- Explosion icon -->
    <g transform="translate(175,70)">
      <circle r="20" fill="none" stroke="#000" stroke-width="3"/>
      <g transform="translate(-19.5,-19.5) scale(0.077)">
        <path d="M0,0 L9,0 L9,4 L5,7 L-3,8 L-6,7 L-5,3 Z " transform="translate(81,425)" fill="#000"/>
        <path d="M0,0 L4,1 L12,15 L-1,18 L-6,21 L-8,21 L-16,10 L-16,7 Z " transform="translate(255,420)" fill="#000"/>
        <path d="M0,0 L7,1 L6,5 L-1,9 L-11,9 L-12,7 L-8,3 Z " transform="translate(181,417)" fill="#000"/>
        <path d="M0,0 L4,1 L5,5 L-2,8 L-32,16 L-37,16 L-38,11 L-29,8 Z " transform="translate(240,399)" fill="#000"/>
        <path d="M0,0 L17,1 L121,11 L126,12 L126,13 L16,17 L0,17 L-3,12 L-3,5 Z " transform="translate(72,371)" fill="#000"/>
        <path d="M0,0 L5,2 L4,7 L-2,6 L-3,2 Z " transform="translate(256,353)" fill="#000"/>
        <path d="M0,0 L8,6 L16,13 L13,16 L2,21 L0,8 Z " transform="translate(226,340)" fill="#000"/>
        <path d="M0,0 L10,1 L61,12 L62,13 L62,18 L55,18 L0,6 L-1,1 Z " transform="translate(81,339)" fill="#000"/>
        <path d="M0,0 L10,1 L50,13 L51,17 L49,19 L42,18 L1,6 L-1,4 Z " transform="translate(162,327)" fill="#000"/>
        <path d="M0,0 L4,2 L3,6 L-7,15 L-15,21 L-19,20 L-18,15 L-8,6 Z " transform="translate(449,319)" fill="#000"/>
        <path d="M0,0 L2,3 L9,16 L14,20 L22,20 L28,16 L34,11 L39,5 L41,7 L42,16 L46,22 L54,32 L57,41 L58,47 L58,64 L54,80 L47,94 L36,106 L24,115 L11,121 L0,124 L-12,125 L-27,123 L-43,117 L-56,109 L-62,108 L-71,108 L-72,103 L-68,93 L-68,84 L-71,79 L-76,77 L-95,77 L-92,68 L-89,59 L-88,48 L-60,47 L-45,45 L-36,42 L-33,41 L-31,35 L-30,33 L-29,22 L-15,22 L-9,18 L-4,10 Z M14,78 L6,85 L-8,92 L-23,96 L-21,100 L-7,108 L-3,109 L6,109 L12,105 L15,101 L16,98 L16,80 Z " transform="translate(360,316)" fill="#000"/>
        <path d="M0,0 L14,0 L30,5 L40,12 L39,15 L24,15 L11,11 L2,6 L-1,3 Z " transform="translate(114,301)" fill="#000"/>
        <path d="M0,0 L5,2 L13,8 L13,10 L1,16 L-1,16 Z " transform="translate(428,294)" fill="#000"/>
        <path d="M0,0 L8,2 L6,6 L3,10 L1,10 L-1,1 Z " transform="translate(344,255)" fill="#000"/>
        <path d="M0,0 L6,2 L30,16 L54,30 L78,44 L104,59 L121,69 L150,86 L160,92 L158,93 L118,75 L77,57 L35,38 L-1,22 L-8,19 L-9,17 L-8,8 L-3,1 Z " transform="translate(82,218)" fill="#000"/>
        <path d="M0,0 L4,1 L3,11 L-15,82 L-20,83 L-21,82 L-20,73 L-2,2 Z " transform="translate(426,218)" fill="#000"/>
        <path d="M0,0 L3,1 L2,10 L-2,17 L-6,21 L-9,21 L-9,13 L-4,3 Z " transform="translate(432,168)" fill="#000"/>
        <path d="M0,0 L5,1 L23,47 L41,94 L47,109 L47,115 L43,116 L40,111 L21,62 L3,15 L-1,5 Z " transform="translate(267,167)" fill="#000"/>
        <path d="M0,0 L6,1 L22,13 L38,24 L52,34 L69,46 L87,59 L107,73 L124,85 L142,98 L162,112 L180,125 L197,137 L210,146 L210,151 L206,152 L188,139 L169,126 L153,114 L137,103 L120,91 L102,78 L85,66 L68,54 L50,41 L33,29 L16,17 L2,7 L-1,4 Z " transform="translate(70,160)" fill="#000"/>
        <path d="M0,0 L5,0 L20,16 L27,24 L41,39 L48,47 L59,59 L70,71 L79,81 L91,94 L100,104 L111,116 L122,128 L130,137 L129,142 L124,141 L112,128 L101,116 L92,106 L80,93 L71,83 L60,71 L51,61 L40,49 L29,37 L20,27 L8,14 L0,5 Z " transform="translate(153,156)" fill="#000"/>
        <path d="M0,0 L5,1 L5,49 L3,141 L1,143 L-3,142 L-4,138 L-2,37 L-1,1 Z " transform="translate(368,149)" fill="#000"/>
        <path d="M0,0 L5,0 L11,7 L14,15 L14,23 L12,27 L6,26 L0,18 L-2,11 L-2,4 Z " transform="translate(254,132)" fill="#000"/>
        <path d="M0,0 L7,0 L16,5 L24,12 L29,19 L31,24 L31,32 L30,33 L22,33 L12,27 L3,18 L-2,8 L-2,2 Z " transform="translate(104,132)" fill="#000"/>
        <path d="M0,0 L4,1 L5,2 L9,92 L9,108 L4,109 L3,108 L2,98 L-1,27 L-1,1 Z " transform="translate(338,115)" fill="#000"/>
        <path d="M0,0 L3,1 L3,7 L-1,13 L-4,13 L-5,7 L-2,1 Z " transform="translate(442,90)" fill="#000"/>
        <path d="M0,0 L4,4 L5,8 L5,21 L2,28 L-1,28 L-4,21 L-4,8 L-1,1 Z " transform="translate(357,80)" fill="#000"/>
        <path d="M0,0 L6,0 L10,5 L28,41 L38,60 L52,88 L62,107 L79,141 L89,160 L102,186 L101,188 L83,161 L73,145 L59,124 L38,92 L17,60 L-4,28 L-13,14 L-12,7 L-4,1 Z " transform="translate(176,72)" fill="#000"/>
        <path d="M0,0 L7,0 L11,4 L3,77 L-6,155 L-7,155 L-6,106 L-3,4 L-2,1 Z " transform="translate(397,69)" fill="#000"/>
        <path d="M0,0 L6,0 L10,4 L21,108 L28,175 L28,182 L27,182 L0,55 L-10,8 L-9,3 Z " transform="translate(296,66)" fill="#000"/>
      </g>
    </g>
  </g>

  <!-- GREEN TICKET (Bottom Left) -->
  <g transform="translate(5,225)">
    <rect width="200" height="200" rx="20" fill="#a1bd62"/>
    <g transform="translate(75,100)">
      <circle r="23" fill="#fff"/>
      <path d="M-8,-15 L-5,-30 Q-5,-33 0,-33 Q5,-33 5,-30 L8,-15 Z" fill="#fff"/>
      <path d="M-8,-15 L-5,-30 Q-5,-33 0,-33 Q5,-33 5,-30 L8,-15 Z" fill="#fff" transform="rotate(45)"/>
      <path d="M-8,-15 L-5,-30 Q-5,-33 0,-33 Q5,-33 5,-30 L8,-15 Z" fill="#fff" transform="rotate(90)"/>
      <path d="M-8,-15 L-5,-30 Q-5,-33 0,-33 Q5,-33 5,-30 L8,-15 Z" fill="#fff" transform="rotate(135)"/>
      <path d="M-8,-15 L-5,-30 Q-5,-33 0,-33 Q5,-33 5,-30 L8,-15 Z" fill="#fff" transform="rotate(180)"/>
      <path d="M-8,-15 L-5,-30 Q-5,-33 0,-33 Q5,-33 5,-30 L8,-15 Z" fill="#fff" transform="rotate(225)"/>
      <path d="M-8,-15 L-5,-30 Q-5,-33 0,-33 Q5,-33 5,-30 L8,-15 Z" fill="#fff" transform="rotate(270)"/>
      <path d="M-8,-15 L-5,-30 Q-5,-33 0,-33 Q5,-33 5,-30 L8,-15 Z" fill="#fff" transform="rotate(315)"/>
      <circle r="10" fill="#a1bd62"/>
    </g>
    <g transform="translate(125,78)">
      <circle r="16" fill="#ccc"/>
      <path d="M-6,-12 L-4,-20 Q-4,-23 0,-23 Q4,-23 4,-20 L6,-12 Z" fill="#ccc"/>
      <path d="M-6,-12 L-4,-20 Q-4,-23 0,-23 Q4,-23 4,-20 L6,-12 Z" fill="#ccc" transform="rotate(60)"/>
      <path d="M-6,-12 L-4,-20 Q-4,-23 0,-23 Q4,-23 4,-20 L6,-12 Z" fill="#ccc" transform="rotate(120)"/>
      <path d="M-6,-12 L-4,-20 Q-4,-23 0,-23 Q4,-23 4,-20 L6,-12 Z" fill="#ccc" transform="rotate(180)"/>
      <path d="M-6,-12 L-4,-20 Q-4,-23 0,-23 Q4,-23 4,-20 L6,-12 Z" fill="#ccc" transform="rotate(240)"/>
      <path d="M-6,-12 L-4,-20 Q-4,-23 0,-23 Q4,-23 4,-20 L6,-12 Z" fill="#ccc" transform="rotate(300)"/>
      <circle r="6" fill="#a1bd62"/>
    </g>
    <!-- Bomb icon -->
    <g transform="translate(175,25)">
      <circle r="20" fill="none" stroke="#000" stroke-width="3"/>
      <g transform="translate(-13.8,-13.8) scale(1.15)">
        <path stroke="none" d="M0 0h24v24H0z" fill="none"/>
        <path d="M14.499 3.996a2.2 2.2 0 0 1 1.556 .645l3.302 3.301a2.2 2.2 0 0 1 0 3.113l-.567 .567l.043 .192a8.5 8.5 0 0 1 -3.732 8.83l-.23 .144a8.5 8.5 0 1 1 -2.687 -15.623l.192 .042l.567 -.566a2.2 2.2 0 0 1 1.362 -.636zm-4.499 5.004a4 4 0 0 0 -4 4a1 1 0 0 0 2 0a2 2 0 0 1 2 -2a1 1 0 0 0 0 -2z" fill="#000"/>
        <path d="M21 2a1 1 0 0 1 .117 1.993l-.117 .007h-1c0 .83 -.302 1.629 -.846 2.25l-.154 .163l-1.293 1.293a1 1 0 0 1 -1.497 -1.32l.083 -.094l1.293 -1.292c.232 -.232 .375 -.537 .407 -.86l.007 -.14a2 2 0 0 1 1.85 -1.995l.15 -.005h1z" fill="#000"/>
      </g>
    </g>
    <!-- Explosion icon -->
    <g transform="translate(175,70)">
      <circle r="20" fill="none" stroke="#000" stroke-width="3"/>
      <g transform="translate(-19.5,-19.5) scale(0.077)">
        <path d="M0,0 L9,0 L9,4 L5,7 L-3,8 L-6,7 L-5,3 Z " transform="translate(81,425)" fill="#000"/>
        <path d="M0,0 L4,1 L12,15 L-1,18 L-6,21 L-8,21 L-16,10 L-16,7 Z " transform="translate(255,420)" fill="#000"/>
        <path d="M0,0 L7,1 L6,5 L-1,9 L-11,9 L-12,7 L-8,3 Z " transform="translate(181,417)" fill="#000"/>
        <path d="M0,0 L4,1 L5,5 L-2,8 L-32,16 L-37,16 L-38,11 L-29,8 Z " transform="translate(240,399)" fill="#000"/>
        <path d="M0,0 L17,1 L121,11 L126,12 L126,13 L16,17 L0,17 L-3,12 L-3,5 Z " transform="translate(72,371)" fill="#000"/>
        <path d="M0,0 L5,2 L4,7 L-2,6 L-3,2 Z " transform="translate(256,353)" fill="#000"/>
        <path d="M0,0 L8,6 L16,13 L13,16 L2,21 L0,8 Z " transform="translate(226,340)" fill="#000"/>
        <path d="M0,0 L10,1 L61,12 L62,13 L62,18 L55,18 L0,6 L-1,1 Z " transform="translate(81,339)" fill="#000"/>
        <path d="M0,0 L10,1 L50,13 L51,17 L49,19 L42,18 L1,6 L-1,4 Z " transform="translate(162,327)" fill="#000"/>
        <path d="M0,0 L4,2 L3,6 L-7,15 L-15,21 L-19,20 L-18,15 L-8,6 Z " transform="translate(449,319)" fill="#000"/>
        <path d="M0,0 L2,3 L9,16 L14,20 L22,20 L28,16 L34,11 L39,5 L41,7 L42,16 L46,22 L54,32 L57,41 L58,47 L58,64 L54,80 L47,94 L36,106 L24,115 L11,121 L0,124 L-12,125 L-27,123 L-43,117 L-56,109 L-62,108 L-71,108 L-72,103 L-68,93 L-68,84 L-71,79 L-76,77 L-95,77 L-92,68 L-89,59 L-88,48 L-60,47 L-45,45 L-36,42 L-33,41 L-31,35 L-30,33 L-29,22 L-15,22 L-9,18 L-4,10 Z M14,78 L6,85 L-8,92 L-23,96 L-21,100 L-7,108 L-3,109 L6,109 L12,105 L15,101 L16,98 L16,80 Z " transform="translate(360,316)" fill="#000"/>
        <path d="M0,0 L14,0 L30,5 L40,12 L39,15 L24,15 L11,11 L2,6 L-1,3 Z " transform="translate(114,301)" fill="#000"/>
        <path d="M0,0 L5,2 L13,8 L13,10 L1,16 L-1,16 Z " transform="translate(428,294)" fill="#000"/>
        <path d="M0,0 L8,2 L6,6 L3,10 L1,10 L-1,1 Z " transform="translate(344,255)" fill="#000"/>
        <path d="M0,0 L6,2 L30,16 L54,30 L78,44 L104,59 L121,69 L150,86 L160,92 L158,93 L118,75 L77,57 L35,38 L-1,22 L-8,19 L-9,17 L-8,8 L-3,1 Z " transform="translate(82,218)" fill="#000"/>
        <path d="M0,0 L4,1 L3,11 L-15,82 L-20,83 L-21,82 L-20,73 L-2,2 Z " transform="translate(426,218)" fill="#000"/>
        <path d="M0,0 L3,1 L2,10 L-2,17 L-6,21 L-9,21 L-9,13 L-4,3 Z " transform="translate(432,168)" fill="#000"/>
        <path d="M0,0 L5,1 L23,47 L41,94 L47,109 L47,115 L43,116 L40,111 L21,62 L3,15 L-1,5 Z " transform="translate(267,167)" fill="#000"/>
        <path d="M0,0 L6,1 L22,13 L38,24 L52,34 L69,46 L87,59 L107,73 L124,85 L142,98 L162,112 L180,125 L197,137 L210,146 L210,151 L206,152 L188,139 L169,126 L153,114 L137,103 L120,91 L102,78 L85,66 L68,54 L50,41 L33,29 L16,17 L2,7 L-1,4 Z " transform="translate(70,160)" fill="#000"/>
        <path d="M0,0 L5,0 L20,16 L27,24 L41,39 L48,47 L59,59 L70,71 L79,81 L91,94 L100,104 L111,116 L122,128 L130,137 L129,142 L124,141 L112,128 L101,116 L92,106 L80,93 L71,83 L60,71 L51,61 L40,49 L29,37 L20,27 L8,14 L0,5 Z " transform="translate(153,156)" fill="#000"/>
        <path d="M0,0 L5,1 L5,49 L3,141 L1,143 L-3,142 L-4,138 L-2,37 L-1,1 Z " transform="translate(368,149)" fill="#000"/>
        <path d="M0,0 L5,0 L11,7 L14,15 L14,23 L12,27 L6,26 L0,18 L-2,11 L-2,4 Z " transform="translate(254,132)" fill="#000"/>
        <path d="M0,0 L7,0 L16,5 L24,12 L29,19 L31,24 L31,32 L30,33 L22,33 L12,27 L3,18 L-2,8 L-2,2 Z " transform="translate(104,132)" fill="#000"/>
        <path d="M0,0 L4,1 L5,2 L9,92 L9,108 L4,109 L3,108 L2,98 L-1,27 L-1,1 Z " transform="translate(338,115)" fill="#000"/>
        <path d="M0,0 L3,1 L3,7 L-1,13 L-4,13 L-5,7 L-2,1 Z " transform="translate(442,90)" fill="#000"/>
        <path d="M0,0 L4,4 L5,8 L5,21 L2,28 L-1,28 L-4,21 L-4,8 L-1,1 Z " transform="translate(357,80)" fill="#000"/>
        <path d="M0,0 L6,0 L10,5 L28,41 L38,60 L52,88 L62,107 L79,141 L89,160 L102,186 L101,188 L83,161 L73,145 L59,124 L38,92 L17,60 L-4,28 L-13,14 L-12,7 L-4,1 Z " transform="translate(176,72)" fill="#000"/>
        <path d="M0,0 L7,0 L11,4 L3,77 L-6,155 L-7,155 L-6,106 L-3,4 L-2,1 Z " transform="translate(397,69)" fill="#000"/>
        <path d="M0,0 L6,0 L10,4 L21,108 L28,175 L28,182 L27,182 L0,55 L-10,8 L-9,3 Z " transform="translate(296,66)" fill="#000"/>
      </g>
    </g>
  </g>

  <!-- YELLOW TICKET (Bottom Right) -->
  <g transform="translate(225,225)">
    <rect width="200" height="200" rx="20" fill="#eab03d"/>
    <g transform="translate(75,100)">
      <circle r="23" fill="#fff"/>
      <path d="M-8,-15 L-5,-30 Q-5,-33 0,-33 Q5,-33 5,-30 L8,-15 Z" fill="#fff"/>
      <path d="M-8,-15 L-5,-30 Q-5,-33 0,-33 Q5,-33 5,-30 L8,-15 Z" fill="#fff" transform="rotate(45)"/>
      <path d="M-8,-15 L-5,-30 Q-5,-33 0,-33 Q5,-33 5,-30 L8,-15 Z" fill="#fff" transform="rotate(90)"/>
      <path d="M-8,-15 L-5,-30 Q-5,-33 0,-33 Q5,-33 5,-30 L8,-15 Z" fill="#fff" transform="rotate(135)"/>
      <path d="M-8,-15 L-5,-30 Q-5,-33 0,-33 Q5,-33 5,-30 L8,-15 Z" fill="#fff" transform="rotate(180)"/>
      <path d="M-8,-15 L-5,-30 Q-5,-33 0,-33 Q5,-33 5,-30 L8,-15 Z" fill="#fff" transform="rotate(225)"/>
      <path d="M-8,-15 L-5,-30 Q-5,-33 0,-33 Q5,-33 5,-30 L8,-15 Z" fill="#fff" transform="rotate(270)"/>
      <path d="M-8,-15 L-5,-30 Q-5,-33 0,-33 Q5,-33 5,-30 L8,-15 Z" fill="#fff" transform="rotate(315)"/>
      <circle r="10" fill="#eab03d"/>
    </g>
    <g transform="translate(125,78)">
      <circle r="16" fill="#ccc"/>
      <path d="M-6,-12 L-4,-20 Q-4,-23 0,-23 Q4,-23 4,-20 L6,-12 Z" fill="#ccc"/>
      <path d="M-6,-12 L-4,-20 Q-4,-23 0,-23 Q4,-23 4,-20 L6,-12 Z" fill="#ccc" transform="rotate(60)"/>
      <path d="M-6,-12 L-4,-20 Q-4,-23 0,-23 Q4,-23 4,-20 L6,-12 Z" fill="#ccc" transform="rotate(120)"/>
      <path d="M-6,-12 L-4,-20 Q-4,-23 0,-23 Q4,-23 4,-20 L6,-12 Z" fill="#ccc" transform="rotate(180)"/>
      <path d="M-6,-12 L-4,-20 Q-4,-23 0,-23 Q4,-23 4,-20 L6,-12 Z" fill="#ccc" transform="rotate(240)"/>
      <path d="M-6,-12 L-4,-20 Q-4,-23 0,-23 Q4,-23 4,-20 L6,-12 Z" fill="#ccc" transform="rotate(300)"/>
      <circle r="6" fill="#eab03d"/>
    </g>
    <!-- Bomb icon -->
    <g transform="translate(175,25)">
      <circle r="20" fill="none" stroke="#000" stroke-width="3"/>
      <g transform="translate(-13.8,-13.8) scale(1.15)">
        <path stroke="none" d="M0 0h24v24H0z" fill="none"/>
        <path d="M14.499 3.996a2.2 2.2 0 0 1 1.556 .645l3.302 3.301a2.2 2.2 0 0 1 0 3.113l-.567 .567l.043 .192a8.5 8.5 0 0 1 -3.732 8.83l-.23 .144a8.5 8.5 0 1 1 -2.687 -15.623l.192 .042l.567 -.566a2.2 2.2 0 0 1 1.362 -.636zm-4.499 5.004a4 4 0 0 0 -4 4a1 1 0 0 0 2 0a2 2 0 0 1 2 -2a1 1 0 0 0 0 -2z" fill="#000"/>
        <path d="M21 2a1 1 0 0 1 .117 1.993l-.117 .007h-1c0 .83 -.302 1.629 -.846 2.25l-.154 .163l-1.293 1.293a1 1 0 0 1 -1.497 -1.32l.083 -.094l1.293 -1.292c.232 -.232 .375 -.537 .407 -.86l.007 -.14a2 2 0 0 1 1.85 -1.995l.15 -.005h1z" fill="#000"/>
      </g>
    </g>
    <!-- Explosion icon -->
    <g transform="translate(175,70)">
      <circle r="20" fill="none" stroke="#000" stroke-width="3"/>
      <g transform="translate(-19.5,-19.5) scale(0.077)">
        <path d="M0,0 L9,0 L9,4 L5,7 L-3,8 L-6,7 L-5,3 Z " transform="translate(81,425)" fill="#000"/>
        <path d="M0,0 L4,1 L12,15 L-1,18 L-6,21 L-8,21 L-16,10 L-16,7 Z " transform="translate(255,420)" fill="#000"/>
        <path d="M0,0 L7,1 L6,5 L-1,9 L-11,9 L-12,7 L-8,3 Z " transform="translate(181,417)" fill="#000"/>
        <path d="M0,0 L4,1 L5,5 L-2,8 L-32,16 L-37,16 L-38,11 L-29,8 Z " transform="translate(240,399)" fill="#000"/>
        <path d="M0,0 L17,1 L121,11 L126,12 L126,13 L16,17 L0,17 L-3,12 L-3,5 Z " transform="translate(72,371)" fill="#000"/>
        <path d="M0,0 L5,2 L4,7 L-2,6 L-3,2 Z " transform="translate(256,353)" fill="#000"/>
        <path d="M0,0 L8,6 L16,13 L13,16 L2,21 L0,8 Z " transform="translate(226,340)" fill="#000"/>
        <path d="M0,0 L10,1 L61,12 L62,13 L62,18 L55,18 L0,6 L-1,1 Z " transform="translate(81,339)" fill="#000"/>
        <path d="M0,0 L10,1 L50,13 L51,17 L49,19 L42,18 L1,6 L-1,4 Z " transform="translate(162,327)" fill="#000"/>
        <path d="M0,0 L4,2 L3,6 L-7,15 L-15,21 L-19,20 L-18,15 L-8,6 Z " transform="translate(449,319)" fill="#000"/>
        <path d="M0,0 L2,3 L9,16 L14,20 L22,20 L28,16 L34,11 L39,5 L41,7 L42,16 L46,22 L54,32 L57,41 L58,47 L58,64 L54,80 L47,94 L36,106 L24,115 L11,121 L0,124 L-12,125 L-27,123 L-43,117 L-56,109 L-62,108 L-71,108 L-72,103 L-68,93 L-68,84 L-71,79 L-76,77 L-95,77 L-92,68 L-89,59 L-88,48 L-60,47 L-45,45 L-36,42 L-33,41 L-31,35 L-30,33 L-29,22 L-15,22 L-9,18 L-4,10 Z M14,78 L6,85 L-8,92 L-23,96 L-21,100 L-7,108 L-3,109 L6,109 L12,105 L15,101 L16,98 L16,80 Z " transform="translate(360,316)" fill="#000"/>
        <path d="M0,0 L14,0 L30,5 L40,12 L39,15 L24,15 L11,11 L2,6 L-1,3 Z " transform="translate(114,301)" fill="#000"/>
        <path d="M0,0 L5,2 L13,8 L13,10 L1,16 L-1,16 Z " transform="translate(428,294)" fill="#000"/>
        <path d="M0,0 L8,2 L6,6 L3,10 L1,10 L-1,1 Z " transform="translate(344,255)" fill="#000"/>
        <path d="M0,0 L6,2 L30,16 L54,30 L78,44 L104,59 L121,69 L150,86 L160,92 L158,93 L118,75 L77,57 L35,38 L-1,22 L-8,19 L-9,17 L-8,8 L-3,1 Z " transform="translate(82,218)" fill="#000"/>
        <path d="M0,0 L4,1 L3,11 L-15,82 L-20,83 L-21,82 L-20,73 L-2,2 Z " transform="translate(426,218)" fill="#000"/>
        <path d="M0,0 L3,1 L2,10 L-2,17 L-6,21 L-9,21 L-9,13 L-4,3 Z " transform="translate(432,168)" fill="#000"/>
        <path d="M0,0 L5,1 L23,47 L41,94 L47,109 L47,115 L43,116 L40,111 L21,62 L3,15 L-1,5 Z " transform="translate(267,167)" fill="#000"/>
        <path d="M0,0 L6,1 L22,13 L38,24 L52,34 L69,46 L87,59 L107,73 L124,85 L142,98 L162,112 L180,125 L197,137 L210,146 L210,151 L206,152 L188,139 L169,126 L153,114 L137,103 L120,91 L102,78 L85,66 L68,54 L50,41 L33,29 L16,17 L2,7 L-1,4 Z " transform="translate(70,160)" fill="#000"/>
        <path d="M0,0 L5,0 L20,16 L27,24 L41,39 L48,47 L59,59 L70,71 L79,81 L91,94 L100,104 L111,116 L122,128 L130,137 L129,142 L124,141 L112,128 L101,116 L92,106 L80,93 L71,83 L60,71 L51,61 L40,49 L29,37 L20,27 L8,14 L0,5 Z " transform="translate(153,156)" fill="#000"/>
        <path d="M0,0 L5,1 L5,49 L3,141 L1,143 L-3,142 L-4,138 L-2,37 L-1,1 Z " transform="translate(368,149)" fill="#000"/>
        <path d="M0,0 L5,0 L11,7 L14,15 L14,23 L12,27 L6,26 L0,18 L-2,11 L-2,4 Z " transform="translate(254,132)" fill="#000"/>
        <path d="M0,0 L7,0 L16,5 L24,12 L29,19 L31,24 L31,32 L30,33 L22,33 L12,27 L3,18 L-2,8 L-2,2 Z " transform="translate(104,132)" fill="#000"/>
        <path d="M0,0 L4,1 L5,2 L9,92 L9,108 L4,109 L3,108 L2,98 L-1,27 L-1,1 Z " transform="translate(338,115)" fill="#000"/>
        <path d="M0,0 L3,1 L3,7 L-1,13 L-4,13 L-5,7 L-2,1 Z " transform="translate(442,90)" fill="#000"/>
        <path d="M0,0 L4,4 L5,8 L5,21 L2,28 L-1,28 L-4,21 L-4,8 L-1,1 Z " transform="translate(357,80)" fill="#000"/>
        <path d="M0,0 L6,0 L10,5 L28,41 L38,60 L52,88 L62,107 L79,141 L89,160 L102,186 L101,188 L83,161 L73,145 L59,124 L38,92 L17,60 L-4,28 L-13,14 L-12,7 L-4,1 Z " transform="translate(176,72)" fill="#000"/>
        <path d="M0,0 L7,0 L11,4 L3,77 L-6,155 L-7,155 L-6,106 L-3,4 L-2,1 Z " transform="translate(397,69)" fill="#000"/>
        <path d="M0,0 L6,0 L10,4 L21,108 L28,175 L28,182 L27,182 L0,55 L-10,8 L-9,3 Z " transform="translate(296,66)" fill="#000"/>
      </g>
    </g>
  </g>
</svg>
