<?xml version="1.0" encoding="UTF-8"?>
<svg id="Ebene_1" data-name="Ebene 1" xmlns="http://www.w3.org/2000/svg" viewBox="0 0 113.39 113.39">
  <defs>
    <style>
      .cls-1 {
        fill: #fd0;
      }

      .cls-1, .cls-2 {
        stroke-width: 0px;
      }

      .cls-2 {
        fill: #004588;
      }
    </style>
  </defs>
  <rect class="cls-1" width="113.39" height="113.39"/>
  <g>
    <path class="cls-2" d="m29.68,84.05l-1.04,5.13s-12.15,0-12.77,0c.47-2.3,1.03-5.07,1.04-5.13h12.77Zm4.05,5.38l3.55-17.49h-5.12l-1.45,7.13h-13.21c-2.49,0-4.97,2.3-5.54,5.13l-.97,4.74c-.57,2.84.98,5.13,3.46,5.13h12.81s6.45-4.64,6.45-4.64Zm20.12-5.38l-1.04,5.13c-1.17,0-12.76,0-12.76,0,.3-1.46.78-3.79,1.04-5.13h12.76Zm4.98.15c.58-2.84-.99-5.13-3.51-5.13h-13.62c-2.52,0-5.03,2.3-5.61,5.13l-.98,4.74c-.58,2.84.99,5.13,3.51,5.13h12.66l6.44-4.64c.05-.16.09-.33.12-.5l.98-4.74Zm20.89-4.9l.05-.24h-7.56l-6.73,4.84h-.18s2.43-11.97,2.43-11.97h-5.12l-4.5,22.13h5.12l1.14-5.62h.19l6.46,5.62h7.53l.05-.24-8.65-7.52,9.76-7.02Zm19.15-.24h-13.94c-2.52,0-5.03,2.3-5.61,5.13l-.95,4.74c-.58,2.84.96,5.13,3.48,5.13h6.53s5.95-4.65,5.95-4.65l.05-.24h-10.99c.22-1.09.72-3.57,1.04-5.13h12.74l-2.03,10.02h5.25l2.06-10.16c.42-2.7-1.12-4.85-3.56-4.85"/>
    <path class="cls-2" d="m71.41,36.1v4.19l-18.15-8.52-11.29,6.58v-5.64l11.29-8.85,18.15,12.24Zm6.31,14.53l-24.46-4.69-11.29,2.69v5.72h35.74v-3.72Zm0-5.79l-24.46-10.03-11.29,5.76v6.25l11.29-3.72,24.46,6.16v-4.42Zm-42.05-26.23h0s0,42.06,0,42.06h0s42.05,0,42.05,0v-2.1h-39.94V20.7h37.84v19.61h2.1v-21.71h-42.05Z"/>
  </g>
</svg>