<?xml version="1.0" encoding="utf-8"?>
<!-- Generator: Adobe Illustrator 27.8.1, SVG Export Plug-In . SVG Version: 6.00 Build 0)  -->
<svg version="1.1" id="UG_Logo" xmlns="http://www.w3.org/2000/svg" xmlns:xlink="http://www.w3.org/1999/xlink" x="0px" y="0px"
     viewBox="0 0 354.33 354.33" style="enable-background:new 0 0 354.33 354.33;" xml:space="preserve">
<style type="text/css">
    .st0{fill:#0C2340;}
    .st1{fill:#E0E722;}
    .st2{fill:#FFFFFF;}
</style>
<!-- Full blue background covering entire viewBox -->
<rect class="st0" width="354.33" height="354.33"/>
<polygon class="st1" points="166.43,74.22 131.16,101.87 131.16,119.5 166.43,98.94 223.15,125.56 223.15,112.46 "/>
<polygon class="st1" points="242.86,157.87 166.43,143.21 131.16,151.63 131.16,169.5 242.86,169.5 "/>
<polygon class="st1" points="242.86,139.77 166.43,108.43 131.16,126.42 131.16,145.94 166.43,134.32 242.86,153.59 "/>
<polygon class="st1" points="111.46,57.79 111.46,57.79 111.46,64.36 111.45,189.21 111.46,189.21 111.46,189.21 118.04,189.21 
    118.04,189.21 242.86,189.21 242.86,182.64 118.04,182.64 118.04,64.36 236.29,64.36 236.29,125.63 242.86,125.63 242.88,57.79 "/>
<g>
    <path class="st2" d="M70.55,262.09c3.82,0,6.44-1.77,8.1-3.71v3.08h7.99v-30h-7.99v17.63c0,3.88-2.74,5.93-5.53,5.93
        c-3.31,0-4.79-2.17-4.79-5.48v-18.08h-7.99v19.85C60.34,257.81,64.34,262.09,70.55,262.09"/>
    <path class="st2" d="M118.9,261.46v-17.34c0-3.93,2.68-5.93,5.31-5.93c3.31,0,4.56,2.39,4.56,5.76v17.51h7.99v-19.79
        c0-6.5-3.99-10.78-10.15-10.78c-4.62,0-7.47,2.22-9.3,4.1c-1.65-2.57-4.45-4.1-8.1-4.1c-3.88,0-6.56,1.71-8.16,3.65v-3.08h-7.99v30
        h7.99v-17.34c0-3.93,2.68-5.93,5.31-5.93c3.31,0,4.56,2.39,4.56,5.76v17.51H118.9z"/>
    <path class="st2" d="M194.56,258.67c0.02-0.09,0.25,2.79,0.25,2.79h6.77v-9.23v-10.9c0-6.96-4.56-10.44-12.15-10.44
        c-7.13,0-11.69,4.11-13.06,9.18l7.59,1.43c0.69-2.68,2.22-3.99,5.19-3.99c3.31,0,4.62,1.6,4.62,4.16v0.46l-7.48,1.43
        c-6.05,1.09-10.84,3.59-10.84,9.58c0,5.31,4.33,8.84,10.21,8.84C189.6,261.97,192.62,260.78,194.56,258.67 M183.32,252.68
        c0-2.39,1.94-3.25,4.57-3.76l5.88-1.2v3.08c0,3.37-3.14,5.14-6.5,5.14C184.86,255.93,183.32,254.73,183.32,252.68"/>
    <path class="st2" d="M221.09,242.87c-3.71-0.74-5.7-1.09-5.7-3.02c0-1.65,1.65-2.74,4.17-2.74c3.13,0,6.05,1.43,8.04,4l4.56-5.02
        c-2.34-3.02-7.07-5.19-12.38-5.19c-7.18,0-12.26,3.99-12.26,9.75c0,6.44,5.36,7.7,10.21,8.67c4.79,0.91,7.01,1.2,7.01,3.48
        c0,2.17-2.34,3.08-5.02,3.08c-3.37,0-7.02-1.77-9.07-4.57l-4.96,5.08c2.74,3.71,8.44,5.7,13.86,5.7c7.18,0,13.01-3.87,13.01-10.15
        C232.56,245.15,226.34,243.95,221.09,242.87"/>
    <path class="st2" d="M250.44,255.36c-4.22,0-7.01-3.25-7.01-8.9c0-5.59,2.79-8.9,7.01-8.9c3.31,0,5.31,2.28,6.05,5.36l6.79-3.19
        c-1.43-4.85-5.99-8.84-12.89-8.84c-8.73,0-14.88,6.33-14.88,15.58c0,9.3,6.16,15.63,14.88,15.63c6.96,0,11.64-4.11,13.01-9.01
        l-6.9-3.08C255.74,253.07,253.75,255.36,250.44,255.36"/>
    <path class="st2" d="M283.48,230.89c-3.82,0-6.56,1.71-8.21,3.65V220.5h-7.99v40.95h7.99v-17.34c0-3.94,2.74-5.93,5.53-5.93
        c3.42,0,4.79,2.39,4.79,5.76v17.51h7.98v-19.79C293.58,235.16,289.76,230.89,283.48,230.89"/>
    <path class="st2" d="M81.67,281.66c-1.6-2.91-5.02-4.96-9.13-4.96c-8.16,0-12.95,6.73-12.95,14.83c0,8.16,4.79,14.89,12.95,14.89
        c4.17,0,7.53-2.05,9.13-4.96v3.37c0,6.22-3.48,8.9-8.73,8.9c-4.16,0-7.24-2.22-8.21-6.05l-4.79,1.82c1.65,5.48,6.45,8.5,13.01,8.5
        c8.1,0,13.86-4.85,13.86-13.58v-27.15h-5.14V281.66z M81.73,292.15c0,6.56-3.99,9.75-8.27,9.75c-5.42,0-8.73-4.11-8.73-10.38
        s3.31-10.32,8.73-10.32c4.28,0,8.27,3.19,8.27,9.87V292.15z"/>
    <path class="st2" d="M99.79,282.34v-5.08h-5.14v29.83h5.14v-16.31c0-5.25,3.48-8.67,7.81-8.67c0.97,0,1.66,0.06,2.51,0.23v-5.19
        c-0.51-0.06-1.26-0.12-2.05-0.12C104.01,277.03,101.1,279.32,99.79,282.34"/>
    <path class="st2" d="M126.81,276.69c-8.16,0-13.86,6.27-13.86,15.52c0,9.24,5.7,15.51,13.86,15.51s13.86-6.27,13.86-15.51
        C140.67,282.97,134.97,276.69,126.81,276.69 M126.81,303.33c-5.25,0-8.67-4.34-8.67-11.12c0-6.85,3.42-11.18,8.67-11.18
        c5.25,0,8.67,4.33,8.67,11.18C135.48,298.99,132.05,303.33,126.81,303.33"/>
    <path class="st2" d="M165.36,295.23c0,4.96-3.77,7.76-7.47,7.76c-4.4,0-6.22-2.85-6.22-7.07v-18.66h-5.13V297
        c0,6.33,3.59,10.73,9.98,10.73c4.22,0,7.13-2.23,8.84-4.74v4.1h5.14v-29.83h-5.14V295.23z"/>
    <path class="st2" d="M192.69,276.69c-4.16,0-7.47,2-9.24,4.91v-4.33h-5.14v40.1h5.14v-14.6c1.77,2.96,5.08,4.96,9.24,4.96
        c8.27,0,13.01-7.08,13.01-15.52C205.69,283.71,200.96,276.69,192.69,276.69 M191.77,303.22c-4.22,0-8.44-3.08-8.44-9.92v-2.11
        c0-6.96,4.22-9.98,8.44-9.98c5.59,0,8.73,4.57,8.73,11.01C200.5,298.6,197.36,303.22,191.77,303.22"/>
    <g>
        <path class="st2" d="M162.88,234.54c-1.77-2.17-4.62-3.65-8.39-3.65c-8.27,0-13.06,7.07-13.06,15.57
            c0,8.56,4.79,15.63,13.06,15.63c3.77,0,6.62-1.48,8.39-3.71v3.08h7.99v-40.95h-7.99V234.54z M163.05,247.32
            c0,5.08-2.85,7.93-6.67,7.93c-4.51,0-6.9-3.59-6.9-8.79c0-5.14,2.39-8.73,6.9-8.73c3.82,0,6.67,2.79,6.67,7.93V247.32z"/>
    </g>
</g>
</svg>
